#!OML:ASF H:\Dans Jumps\Project 1\Capture day 1\Session 1\subject.ASF
:FULLY-SPECIFIED
:DEGREES
316
root 0.321633 16.778 -2.82453 8.34334 -2.46941 -1.10003
lowerback 6.50704 -1.2378 -1.19867
upperback 5.69043 -1.73169 2.4632
thorax 2.34567 -0.95797 3.28994
lowerneck -12.4072 1.33515 -0.0832119
upperneck 32.7826 2.24467 -1.07298
head 13.0274 0.811791 -0.0815958
rclavicle -3.47873e-015 -1.82882e-014
rhumerus -18.0359 -15.5653 -81.3165
rradius 21.2312
rwrist 36.8103
rhand -25.3619 -24.5983
rfingers 7.12502
rthumb 1.162 -54.5749
lclavicle -3.47873e-015 -1.82882e-014
lhumerus -7.56861 -2.47009 91.706
lradius 16.2776
lwrist 4.59532
lhand -29.4393 -8.1072
lfingers 7.12502
lthumb -2.77598 21.8545
rfemur -32.1185 -2.9279 20.6061
rtibia 48.507
rfoot -21.1918 -8.19218
rtoes 4.25076
lfemur -32.5262 7.50877 -17.5484
ltibia 45.4188
lfoot -19.6269 1.6215
ltoes -3.63467
317
root 0.322933 16.7798 -2.81781 8.36553 -2.36671 -1.11562
lowerback 6.48178 -1.23641 -1.17215
upperback 5.68018 -1.72849 2.47241
thorax 2.34821 -0.955502 3.28389
lowerneck -12.4162 1.322 -0.0866822
upperneck 32.6906 2.22998 -1.08333
head 12.9903 0.804952 -0.0869963
rclavicle -1.26228e-014 7.95139e-016
rhumerus -17.9273 -15.3949 -81.382
rradius 21.3559
rwrist 36.5165
rhand -25.3153 -24.5298
rfingers 7.12502
rthumb 1.20708 -54.5061
lclavicle -1.26228e-014 7.95139e-016
lhumerus -7.86293 -2.61031 91.7099
lradius 16.2101
lwrist 4.47969
lhand -29.4491 -8.07604
lfingers 7.12502
lthumb -2.78544 21.8855
rfemur -32.0793 -2.95608 20.6204
rtibia 48.4658
rfoot -21.1891 -8.2818
rtoes 4.24219
lfemur -32.5255 7.45403 -17.5353
ltibia 45.3896
lfoot -19.6393 1.58692
ltoes -3.61294
318
root 0.324513 16.7821 -2.81117 8.39088 -2.26556 -1.13415
lowerback 6.45288 -1.23633 -1.14412
upperback 5.67058 -1.72707 2.48421
thorax 2.35361 -0.95397 3.27965
lowerneck -12.428 1.31093 -0.0963646
upperneck 32.5958 2.21777 -1.08732
head 12.9525 0.799247 -0.0884562
rclavicle 1.27222e-014 -1.43125e-014
rhumerus -17.8326 -15.1864 -81.4497
rradius 21.5028
rwrist 36.1439
rhand -25.2401 -24.4566
rfingers 7.12502
rthumb 1.27964 -54.4325
lclavicle 1.27222e-014 -1.43125e-014
lhumerus -8.16698 -2.79805 91.7166
lradius 16.1632
lwrist 4.40809
lhand -29.4577 -8.02832
lfingers 7.12502
lthumb -2.79378 21.9331
rfemur -32.042 -2.98436 20.6368
rtibia 48.4195
rfoot -21.1812 -8.36538
rtoes 4.2322
lfemur -32.5249 7.39826 -17.5202
ltibia 45.3536
lfoot -19.649 1.55196
ltoes -3.58773
319
root 0.326421 16.785 -2.80433 8.41679 -2.17051 -1.1473
lowerback 6.4202 -1.23474 -1.12197
upperback 5.66178 -1.72392 2.49476
thorax 2.36197 -0.951783 3.27726
lowerneck -12.4387 1.2999 -0.111304
upperneck 32.4986 2.20457 -1.08415
head 12.9134 0.793412 -0.0863754
rclavicle -1.33186e-014 3.06128e-014
rhumerus -17.7494 -14.9737 -81.5134
rradius 21.6506
rwrist 35.7279
rhand -25.1452 -24.4061
rfingers 7.12502
rthumb 1.37134 -54.3814
lclavicle -1.33186e-014 3.06128e-014
lhumerus -8.48424 -3.04149 91.7273
lradius 16.1382
lwrist 4.37965
lhand -29.4603 -7.97889
lfingers 7.12502
lthumb -2.79622 21.9825
rfemur -32.0033 -3.01356 20.6458
rtibia 48.3684
rfoot -21.1692 -8.44138
rtoes 4.22007
lfemur -32.5169 7.34452 -17.5124
ltibia 45.3061
lfoot -19.6567 1.51428
ltoes -3.55304
